<svg width="24" height="24" viewBox="0 0 24 24" fill="none" xmlns="http://www.w3.org/2000/svg">
<path d="M17.4766 12.5C17.4766 12.9219 17.1484 13.25 16.75 13.25H9.55469L12.0156 15.7344C12.3203 16.0156 12.3203 16.5078 12.0156 16.7891C11.875 16.9297 11.6875 17 11.5 17C11.2891 17 11.1016 16.9297 10.9609 16.7891L7.21094 13.0391C6.90625 12.7578 6.90625 12.2656 7.21094 11.9844L10.9609 8.23438C11.2422 7.92969 11.7344 7.92969 12.0156 8.23438C12.3203 8.51562 12.3203 9.00781 12.0156 9.28906L9.55469 11.75H16.75C17.1484 11.75 17.4766 12.1016 17.4766 12.5Z" fill="#161A27"/>
</svg>
