<svg width="25" height="26" viewBox="0 0 25 26" fill="none" xmlns="http://www.w3.org/2000/svg">
<path d="M12.0938 15.625C11.75 15.9688 11.2188 15.9688 10.875 15.625L8.875 13.625C8.53125 13.2812 8.53125 12.75 8.875 12.4062C9.21875 12.0625 9.75 12.0625 10.0938 12.4062L11.5 13.7812L14.875 10.4062C15.2188 10.0625 15.75 10.0625 16.0938 10.4062C16.4375 10.75 16.4375 11.2812 16.0938 11.625L12.0938 15.625ZM20.5 13C20.5 17.4375 16.9062 21 12.5 21C8.0625 21 4.5 17.4375 4.5 13C4.5 8.59375 8.0625 5 12.5 5C16.9062 5 20.5 8.59375 20.5 13ZM12.5 6.5C8.90625 6.5 6 9.4375 6 13C6 16.5938 8.90625 19.5 12.5 19.5C16.0625 19.5 19 16.5938 19 13C19 9.4375 16.0625 6.5 12.5 6.5Z" fill="#389E0D"/>
</svg>
