<svg width="24" height="24" viewBox="0 0 24 24" fill="none" xmlns="http://www.w3.org/2000/svg">
<path d="M12.25 14.8125C12.9609 14.8125 13.5625 15.4141 13.5625 16.125C13.5625 16.8633 12.9609 17.4375 12.25 17.4375C11.5117 17.4375 10.9375 16.8633 10.9375 16.125C10.9375 15.4141 11.5117 14.8125 12.25 14.8125ZM12.25 10.4375C12.9609 10.4375 13.5625 11.0391 13.5625 11.75C13.5625 12.4883 12.9609 13.0625 12.25 13.0625C11.5117 13.0625 10.9375 12.4883 10.9375 11.75C10.9375 11.0391 11.5117 10.4375 12.25 10.4375ZM12.25 8.6875C11.5117 8.6875 10.9375 8.11328 10.9375 7.375C10.9375 6.66406 11.5117 6.0625 12.25 6.0625C12.9609 6.0625 13.5625 6.66406 13.5625 7.375C13.5625 8.11328 12.9609 8.6875 12.25 8.6875Z" fill="#161A27"/>
</svg>
