<svg width="12" height="24" viewBox="0 0 12 24" fill="none" xmlns="http://www.w3.org/2000/svg">
<g clip-path="url(#clip0_346_41)">
<path d="M2.25 17.75C0.984375 17.75 0 16.7422 0 15.5V9.5C0 8.25781 0.984375 7.25 2.25 7.25H3.75C4.14844 7.25 4.5 7.60156 4.5 8C4.5 8.42188 4.14844 8.75 3.75 8.75H2.25C1.82812 8.75 1.5 9.10156 1.5 9.5V15.5C1.5 15.9219 1.82812 16.25 2.25 16.25H3.75C4.14844 16.25 4.5 16.6016 4.5 17C4.5 17.4219 4.14844 17.75 3.75 17.75H2.25ZM11.8125 12.1016C12.0469 12.3125 12.0469 12.7109 11.8125 12.8984L8.4375 16.0859C8.27344 16.25 8.03906 16.2734 7.82812 16.2031C7.61719 16.1094 7.5 15.8984 7.5 15.6875V14H4.5C4.07812 14 3.75 13.6719 3.75 13.25V11.75C3.75 11.3516 4.07812 11 4.5 11H7.5V9.3125C7.5 9.10156 7.61719 8.89062 7.82812 8.79688C8.03906 8.72656 8.27344 8.75 8.4375 8.91406L11.8125 12.1016Z" fill="#161A27"/>
</g>
<defs>
<clipPath id="clip0_346_41">
<rect width="12" height="24" fill="white"/>
</clipPath>
</defs>
</svg>
