<svg width="25" height="24" viewBox="0 0 25 24" fill="none" xmlns="http://www.w3.org/2000/svg">
<path d="M8.70312 8.35938C10.2344 6.82812 12.75 6.82812 14.2812 8.35938C15.6484 9.72656 15.8398 11.8867 14.7188 13.4727L14.6914 13.5C14.418 13.9102 13.8711 13.9922 13.4609 13.7188C13.0781 13.418 12.9688 12.8711 13.2695 12.4883L13.2969 12.4609C13.9258 11.5586 13.8164 10.3828 13.0508 9.61719C12.2031 8.74219 10.8086 8.74219 9.93359 9.61719L6.87109 12.6797C5.99609 13.5273 5.99609 14.9219 6.87109 15.7969C7.63672 16.5625 8.83984 16.6445 9.71484 16.043L9.74219 15.9883C10.1523 15.7148 10.6992 15.7969 10.9727 16.207C11.2461 16.5898 11.1641 17.1367 10.7812 17.4375L10.7266 17.4648C9.14062 18.5859 7.00781 18.3945 5.64062 17.0273C4.08203 15.4961 4.08203 12.9805 5.64062 11.4492L8.70312 8.35938ZM16.7695 15.1406C15.2383 16.6992 12.7227 16.6992 11.1914 15.1406C9.82422 13.7734 9.63281 11.6406 10.7539 10.0547L10.7812 10.0273C11.0547 9.61719 11.6016 9.53516 12.0117 9.80859C12.3945 10.082 12.5039 10.6289 12.2031 11.0391L12.1758 11.0664C11.5469 11.9414 11.6562 13.1445 12.4219 13.9102C13.2695 14.7852 14.6641 14.7852 15.5391 13.9102L18.6016 10.8477C19.4766 9.97266 19.4766 8.57812 18.6016 7.73047C17.8359 6.96484 16.6328 6.85547 15.7578 7.48438L15.7305 7.51172C15.3203 7.8125 14.7734 7.70312 14.5 7.32031C14.2266 6.9375 14.3086 6.39062 14.6914 6.08984L14.7461 6.0625C16.332 4.94141 18.4648 5.13281 19.832 6.5C21.3906 8.03125 21.3906 10.5469 19.832 12.0781L16.7695 15.1406Z" fill="white"/>
</svg>
