<svg width="12" height="24" viewBox="0 0 12 24" fill="none" xmlns="http://www.w3.org/2000/svg">
<path d="M10.5234 7.4375C10.9219 7.03906 11.625 7.32031 11.625 7.90625V11.3047C11.625 11.5625 11.4141 11.75 11.1797 11.75H7.73438C7.17188 11.75 6.91406 11.0703 7.28906 10.6719L8.34375 9.64062C7.71094 9.10156 6.86719 8.75 6 8.75C4.42969 8.75 3.04688 9.75781 2.57812 11.2344C2.46094 11.6328 2.03906 11.8438 1.64062 11.7266C1.24219 11.6094 1.03125 11.1875 1.14844 10.7891C1.82812 8.67969 3.77344 7.25 6 7.25C7.28906 7.25 8.48438 7.76562 9.39844 8.58594L10.5234 7.4375ZM10.3359 13.2969C10.7344 13.4141 10.9453 13.8359 10.8047 14.2344C10.125 16.3438 8.17969 17.75 5.97656 17.75C4.6875 17.75 3.49219 17.2578 2.57812 16.4375L1.45312 17.5859C1.05469 17.9844 0.375 17.7031 0.375 17.1172V13.7188C0.375 13.4609 0.5625 13.2734 0.796875 13.25H4.24219C4.80469 13.2734 5.0625 13.9531 4.6875 14.3281L3.63281 15.3828C4.28906 15.9219 5.10938 16.25 6 16.25C7.54688 16.25 8.92969 15.2656 9.39844 13.7891C9.51562 13.3906 9.9375 13.1797 10.3359 13.2969Z" fill="#161A27"/>
</svg>
