<svg width="72" height="64" viewBox="0 0 72 64" fill="none" xmlns="http://www.w3.org/2000/svg">
<path fill-rule="evenodd" clip-rule="evenodd" d="M57.0231 56.8985C57.024 56.8985 57.0245 56.8996 57.0239 56.9003C55.7094 58.4015 55.516 60.6985 56.7888 62.2382C58.0668 63.7736 60.3246 63.9644 61.6783 62.4974C66.478 57.3032 69.696 50.7676 70.9332 43.7013C72.1703 36.635 71.3722 29.349 68.6378 22.7471C65.9034 16.1451 61.353 10.5177 55.5511 6.56293C49.7492 2.60814 42.951 0.5 36 0.5C29.049 0.5 22.2508 2.60814 16.4489 6.56293C10.647 10.5177 6.09665 16.1451 3.36222 22.7471C0.627796 29.349 -0.170341 36.635 1.06682 43.7013C2.30398 50.7676 5.52199 57.3032 10.3217 62.4974C11.6754 63.9644 13.9332 63.7736 15.2065 62.2382C16.4845 60.6979 16.2951 58.3997 14.9698 56.8985C11.2721 52.6916 8.83659 47.4659 7.95904 41.8562C7.08149 36.2466 7.7997 30.4944 10.0264 25.2984C12.2532 20.1024 15.8926 15.6862 20.5026 12.5863C25.1126 9.48645 30.4947 7.83628 35.9953 7.83628C41.4958 7.83628 46.878 9.48645 51.488 12.5863C56.0979 15.6862 59.7374 20.1024 61.9641 25.2984C64.1908 30.4944 64.909 36.2466 64.0315 41.8562C63.1541 47.4651 60.7191 52.6901 57.0223 56.8967C57.0217 56.8974 57.0222 56.8985 57.0231 56.8985ZM52.3537 51.2751C51.0993 52.8301 48.8273 52.6394 47.5493 51.0991C46.2713 49.5637 46.4938 47.2654 47.6203 45.6078C49.1144 43.4102 49.9958 40.8311 50.1686 38.1516C50.3414 35.4721 49.7989 32.795 48.6002 30.4121C47.4016 28.0292 45.5927 26.032 43.3709 24.638C41.1491 23.2441 38.5995 22.5069 36 22.5069C33.4005 22.5069 30.8509 23.2441 28.6291 24.638C26.4073 26.032 24.5984 28.0292 23.3998 30.4121C22.2011 32.795 21.6586 35.4721 21.8314 38.1516C22.0042 40.8311 22.8856 43.4102 24.3797 45.6078C25.5062 47.2654 25.7239 49.5637 24.4507 51.0991C23.1727 52.6394 20.9007 52.8301 19.6463 51.2751C17.0517 48.0631 15.3971 44.1534 14.8766 40.0045C14.3562 35.8556 14.9914 31.6394 16.7078 27.8502C18.4242 24.0609 21.1507 20.8557 24.5677 18.6102C27.9846 16.3648 31.9503 15.1721 36 15.1721C40.0497 15.1721 44.0154 16.3648 47.4323 18.6102C50.8493 20.8557 53.5758 24.0609 55.2922 27.8502C57.0086 31.6394 57.6438 35.8556 57.1234 40.0045C56.6029 44.1534 54.9483 48.0631 52.3537 51.2751ZM36 44.5125C37.883 44.5125 39.6889 43.7397 41.0205 42.3641C42.352 40.9886 43.1 39.123 43.1 37.1776C43.1 35.2323 42.352 33.3667 41.0205 31.9912C39.6889 30.6156 37.883 29.8428 36 29.8428C34.117 29.8428 32.3111 30.6156 30.9795 31.9912C29.648 33.3667 28.9 35.2323 28.9 37.1776C28.9 39.123 29.648 40.9886 30.9795 42.3641C32.3111 43.7397 34.117 44.5125 36 44.5125Z" fill="#389E0D"/>
</svg>
